<svg xmlns="http://www.w3.org/2000/svg" viewBox="0 0 1366 121"><defs><style>.cls-1{fill:#99a328;}.cls-2{fill:#48b2b7;}.cls-3{fill:#82d4d8;}</style></defs><title>Asset 1</title><g id="Layer_2" data-name="Layer 2"><g id="Layer_1-2" data-name="Layer 1"><path class="cls-1" d="M0,45.26C319.47,75,489.26,59.34,620,36.51c14.4-2.51,14.22-2.75,32-5.81,244.45-42,474.47-30.53,556-24.94,38.5,2.63,93.68,7.36,158,16.4V113H0Z"/><path class="cls-2" d="M0,58.37c317,36.81,480.21,24,612.53,4.08,14.57-2.19,14.41-2.44,32.4-5.1,247.36-36.58,476.34-20,557.4-12.65C1240.6,48.19,1302.4,49.56,1366,60v53H0Z"/><path class="cls-3" d="M0,68C315.92,107.5,480.13,95,613,76.2c14.63-2.07,13.93-1.31,32-3.82,248.37-34.48,477.16-17.9,558-9.83,38.17,3.8,99.71,8.13,163,19.12V121H0Z"/></g></g></svg>