<svg id="Layer_1" data-name="Layer 1" xmlns="http://www.w3.org/2000/svg" viewBox="0 0 1366 113"><defs><style>.cls-1{fill:#99a328;}.cls-2{fill:#48b2b7;}.cls-3{fill:#82d4d8;}</style></defs><title>aigma banner</title><path class="cls-1" d="M1366,67.74C1046.53,38,876.74,53.66,746,76.49c-14.4,2.51-14.22,2.75-32,5.81-244.45,42-474.47,30.53-556,24.94-38.5-2.63-93.68-7.36-158-16.4V0H1366Z" transform="translate(0 0)"/><path class="cls-2" d="M1366,54.63c-317-36.81-480.21-24-612.53-4.08-14.57,2.19-14.41,2.44-32.4,5.1-247.36,36.58-476.34,20-557.4,12.65C125.4,64.81,63.6,63.44,0,53V0H1366Z" transform="translate(0 0)"/><path class="cls-3" d="M1366,53C1050.08,13.5,885.87,26,753,44.8c-14.63,2.07-13.93,1.31-32,3.82C472.63,83.1,243.84,66.52,163,58.45c-38.17-3.8-99.71-8.13-163-19.12V0H1366Z" transform="translate(0 0)"/></svg>