<svg xmlns="http://www.w3.org/2000/svg" viewBox="0 0 1052.2 662.33"><defs><style>.cls-1,.cls-5{fill:none;}.cls-1{stroke:#000;}.cls-1,.cls-4,.cls-5,.cls-6{stroke-miterlimit:10;}.cls-1,.cls-5,.cls-6{stroke-width:3px;}.cls-2{fill:#48b2b7;}.cls-3{fill:#99a328;}.cls-4,.cls-6{fill:#82d4d8;}.cls-4,.cls-5,.cls-6{stroke:#fcc252;}</style></defs><title>dragon_sigma_no_black</title><g id="Layer_4" data-name="Layer 4"><path class="cls-1" d="M520.5,268.5" transform="translate(-179 -52.98)"/><path class="cls-2" d="M448.5,144.5c-14.12-11.82,11.28,16.36-21-33-5.59-8.54-16.32-24.71-18-45-.15-1.83-1-11.53,1-12s5.38,8.54,8,14c6.59,13.77,14.06,17.72,37,38,29.57,26.14,27.08,28.35,42,38,14.15,9.16,5.24,5.19,14,8l.48.25,4.52-3.25c-5.52-9.56-12.34-21.66-20-36,0,0-10-18.77-7-30,.66-2.46,1.57-2.89,2-3,3-.73,7.43,8.06,9,11,7,13.08,10.89,11.64,38,44,18.14,21.65,14.79,20.37,21,26,16.08,14.56,34.9,19.82,48,22-1.66,5.14-.81,8.28,0,10,3.59,7.64,16.47,9,26,10,1.83.19,8.61.84,18,2,5.32.65,9,1.16,11,4,1,1.44.93,2.47,2,8,1.47,7.55,2,7.31,2,9,0,9.16-18.38,19.81-32,19l-.34-.48-.66,1.48-1,2-1,2c-.54,1.08-2.72,3.72-9,10l-10,4-7,1a6.94,6.94,0,0,1,0-2,9,9,0,0,1,3-5,23,23,0,0,0,5-8s4-10,4.62-9.67l-.62-.33c-7.54-2.34-20.36-3.56-34-2a107.89,107.89,0,0,0-24,5,104.81,104.81,0,0,0-31,17,103.59,103.59,0,0,0-9,8l1,2c4,7,9,10,12,14,4.71,6.28,24,25,24,25s8.64-.31,11-1l1,9,5,3-29,1c-29.45-11.21-23-11-54-29l-.18-.37a68.31,68.31,0,0,1-21.82.37c-10.77-1.6-18.27-5.45-31-12-6.18-3.18-11.56-6-18-11-7.87-6.14-11.93-9.49-18-14-6.8-5.06-8-7-22-12-16.84-6-20.39-8.9-27-10-12-2-14-4-33-2-8.84.93-17.18,2.27-27,3-15.48,1.15-33.81,2.52-49,6-13.9,3.19-37,10.84-63,32v-141l4-1c12.54-4.8,31.31-9.67,55.5-13.5,42.77-6.78,76.61-1.8,114,4a596.09,596.09,0,0,1,86,20c.5.5,8.11,3.44,8.11,3.44" transform="translate(-179 -52.98)"/></g><g id="Layer_5" data-name="Layer 5"><path class="cls-3" d="M180,223v50a141.28,141.28,0,0,1,19-14c7.76-4.77,25.8-14.81,77-23,30.27-4.84,45.4-7.26,63-5,11.53,1.48,30.41,4.09,50,16,12.23,7.44,10.94,10.1,30,23,14,9.46,24.23,16.27,39,20,13.1,3.31,32,2,32,2s-10.74-8.58-14-12c-10.18-10.66-21-21-21-21a110.65,110.65,0,0,0-13,0c-25.09,2.42-48-21-48-21s8.4.89,22-3c1.68-.48,7-3,7-3a14.1,14.1,0,0,0-8-5c-13.86-2.48-22.4-9-28-12-15.15-8.22-58.2-18.17-104-16a265.35,265.35,0,0,0-96,23Z" transform="translate(-179 -52.98)"/><polygon class="cls-3" points="364 125.02 371 151.02 404 143.02 364 125.02"/></g><g id="Layer_6" data-name="Layer 6"><path class="cls-4" d="M617,243c-.62-.33-2.5,6.5-2.5,6.5a23,23,0,0,1-5,8,9,9,0,0,0-3,5,6.94,6.94,0,0,0,0,2l7-1,10-4A60.44,60.44,0,0,0,634,245Z" transform="translate(-179 -52.98)"/><polygon class="cls-4" points="378.5 255.52 389.5 254.52 391 266.02 378.5 255.52"/></g><g id="Layer_3" data-name="Layer 3"><path class="cls-5" d="M504.5,195.5a121.5,121.5,0,0,1-34-20c-14.12-11.82-10.72-14.64-43-64-5.59-8.54-16.32-24.71-18-45-.15-1.83-1-11.53,1-12s5.38,8.54,8,14c6.59,13.77,14.06,17.72,37,38,29.57,26.14,27.08,28.35,42,38a151.1,151.1,0,0,0,36,17" transform="translate(-179 -52.98)"/><path class="cls-5" d="M516.5,149.5c-5.52-9.56-12.34-21.66-20-36,0,0-10-18.77-7-30,.66-2.46,1.57-2.89,2-3,3-.73,7.43,8.06,9,11,7,13.08,10.89,11.64,38,44,18.14,21.65,14.79,20.37,21,26,16.08,14.56,34.9,19.82,48,22-1.66,5.14-.81,8.28,0,10,3.59,7.64,16.47,9,26,10,1.83.19,8.61.84,18,2,5.32.65,9,1.16,11,4,1,1.44.93,2.47,2,8,1.47,7.55,2,7.31,2,9,0,9.16-15.38,19.81-29,19a50.87,50.87,0,0,1-6-1c-10.09-2-15.36-4.56-20-6-7.54-2.34-14.36-1.56-28,0a107.89,107.89,0,0,0-24,5,104.81,104.81,0,0,0-31,17,103.59,103.59,0,0,0-9,8" transform="translate(-179 -52.98)"/><path class="cls-5" d="M449.5,200.5a77.75,77.75,0,0,1-15,22c-3.62,3.71-7.61,7.8-14,11a45.06,45.06,0,0,1-26,4,65.27,65.27,0,0,0,9,8c17.75,13,38.56,14.29,52.48,13.28,4.24-.31,7.84-.83,10.52-1.28" transform="translate(-179 -52.98)"/><path class="cls-5" d="M455.5,258.5c1.61,2,3.27,4,5,6,24.43,28.1,54.55,45.79,84,57l29-1a142.69,142.69,0,0,1-28-21c-20.53-19.81-32-43-32-48,0-.4,2-2,2-2s-21.86-.43-56-13c2.29-.88,4.63-1.87,7-3a104.09,104.09,0,0,0,33-25" transform="translate(-179 -52.98)"/><path class="cls-5" d="M543.5,177.5c0,1,7,26,7,26l33-8Z" transform="translate(-179 -52.98)"/><path class="cls-5" d="M490.32,292.13a68.31,68.31,0,0,1-21.82.37c-10.77-1.6-18.27-5.45-31-12-6.18-3.18-11.56-6-18-11-7.87-6.14-11.93-9.49-18-14-6.8-5.06-8-7-22-12-16.84-6-20.39-8.9-27-10-12-2-14-4-33-2-8.84.93-17.18,2.27-27,3-15.48,1.15-33.81,2.52-49,6-13.9,3.19-37,10.84-63,32v-141l4-1c12.54-4.8,31.31-9.67,55.5-13.5,42.77-6.78,76.61-1.8,114,4a596.09,596.09,0,0,1,86,20c.5.5,8.11,3.44,8.11,3.44" transform="translate(-179 -52.98)"/><path class="cls-5" d="M423.63,231.75A261,261,0,0,0,398.5,219.5a270.27,270.27,0,0,0-72-19,275.62,275.62,0,0,0-98,6l-48,16.13" transform="translate(-179 -52.98)"/><path class="cls-5" d="M618.12,240.83c-.62-.33-4.62,9.67-4.62,9.67a23,23,0,0,1-5,8,9,9,0,0,0-3,5,6.94,6.94,0,0,0,0,2l7-1,10-4c6.28-6.28,8.46-8.92,9-10l1-2,1-2,.66-1.48" transform="translate(-179 -52.98)"/><polyline class="cls-5" points="377.5 256.52 388.5 255.52 389.5 264.52"/><path class="cls-6" d="M646.5,282.5s10.76-2.33,30-7c38.49-9.35,36.64-14.15,55-16,25.59-2.58,46.18,5,54,8,12.38,4.72,20.54,10.12,28,15,63.26,41.38,142.8,98.43,223,67,43.46-17,62.57-58,68-71a147.7,147.7,0,0,1,0,21c-1.22,17.17-2.37,33.27-12,48l-28,40c-36.09,54.48-193.47-14.1-231-46-24.35-20.69-18.83-29.17-40-41-36.5-20.4-82.9-12-88-11-18,3.47-32.51,9.69-58,8-9.43-.63-23-4-23-4Z" transform="translate(-179 -52.98)"/><path class="cls-6" d="M661.5,308.5s29.79-3.93,40-2c14.13,2.68,18.13,7.35,52,24,16.53,8.12,16.13,7.26,38,18,26.32,12.93,34,17.72,39,21,70.31,46.41,127.19,54.31,210,68,65.84,10.88,88.6,21.84,100,28a230.77,230.77,0,0,1,47,34c11.8,10.81,22.29,20.6,31,37,4.63,8.72,9.85,18.55,11,32,1.18,13.78-2.71,21.93-16,57-5.9,15.57-10.45,28-13,35l4-34a193.65,193.65,0,0,0-6-25c-3.24-10.41-16.66-53.45-50-81-18.27-15.1-37.51-19.73-76-29-65.88-15.86-137.06-10.52-201-35-15.86-6.07-48.37-18.88-79-48-15.93-15.15-28.2-31.71-41-49a221,221,0,0,0-20-25c-3.69-4.08-13.07-10.81-16-13-.48-.36.63-.06,0-.16Z" transform="translate(-179 -52.98)"/><path class="cls-6" d="M698.53,355a13.37,13.37,0,0,1,1.85,1.21c35.82,27.8,52,62.88,58.12,78.32,11.57,29.37,5.43,35.74,14,83,10.49,57.83,16.14,89,38,114,29.58,33.82,74.51,51.88,118,59a71.25,71.25,0,0,1-31,19C839,725.6,752,654.2,729.5,574.5c-7.25-25.63-13.34-71.6-13-117,.25-33.43,3.88-51.44-9-71-19.56-29.71-60.09-37-66-38a156.84,156.84,0,0,0-51,0s6.13-5.5,38-16h29Z" transform="translate(-179 -52.98)"/><path class="cls-6" d="M851.5,476.5c-9.67,3.21,18.13,66.34,21.21,73.43,15.7,36.07,45.8,55.92,82.79,66.57,28.86,8.31,99.47,10.47,95,55.24-.72,7.19-19.4,36-15,40.76,5.54,6,25.06-10.44,29-15a46.8,46.8,0,0,0,11-30c-.08-10.76-4.08-18.5-7-24-30.32-57.08-100-44.31-143.29-81.48a582.48,582.48,0,0,1-50.47-49.4C872.54,510.21,844.21,478.92,851.5,476.5Z" transform="translate(-179 -52.98)"/></g></svg>