<svg id="Layer_2" data-name="Layer 2" xmlns="http://www.w3.org/2000/svg" viewBox="0 0 553.88 657.04"><defs><style>.cls-1,.cls-5{fill:none;}.cls-1{stroke:#000;stroke-width:8px;}.cls-1,.cls-4,.cls-5{stroke-miterlimit:10;}.cls-2{fill:#e71b1b;}.cls-3{fill:#f9e8bd;}.cls-4{fill:#bdcef9;}.cls-4,.cls-5{stroke:#bdcef9;stroke-width:4px;}</style></defs><title>magic_sigma_blue</title><path class="cls-1" d="M531.5,465.5c-5,12-96,185-131,215" transform="translate(-254.56 -26.5)"/><path class="cls-1" d="M531,329s5.5,124.5.5,136.5" transform="translate(-254.56 -26.5)"/><path class="cls-1" d="M359,234s117,41,172,95" transform="translate(-254.56 -26.5)"/><path class="cls-2" d="M504.88,191.31c11.19-6.54,24.1-6,29.36-5.26C548,188,546,188.58,560.3,191.47c12.64,2.56,10.06,1.68,22.09,1.8A93,93,0,0,0,597.15,192a11.25,11.25,0,0,0,7.74-5.6s.72,4.52-1.79,7.67c-.73.92-2.9,3.31-10.94,5.52A141.43,141.43,0,0,1,577.72,203a107.22,107.22,0,0,1,8.89,13.53,35,35,0,0,1-4.09,38.1c-6.41,7.46-14.61,10.4-19.73,12.23a54.85,54.85,0,0,1-16.89,3.46c-7.73.32-13.57-1.07-20.26-2.72-11.59-2.85-17.94-4.41-24.41-9.07a38.82,38.82,0,0,1-14.87-22.33c-3.39-13,1.61-23,4.13-28C493.13,202.91,496.5,196.21,504.88,191.31Z" transform="translate(-254.56 -26.5)"/><path class="cls-3" d="M509.05,240.19c-2.94-11.34-2.68-17.3-2-23.3.55-4.91,1.31-11.75,7.43-17.64a28.24,28.24,0,0,1,19.27-7.95c9.83-.18,16.78,2.3,19,3.76,11.9,7.78,14.48,22.07,15.69,28.57,1.09,5.85,4,21.28-7.51,32.15a30,30,0,0,1-19.42,8.61c-8.9.48-19.31-2.74-25.16-9.34C514.06,252.46,511.21,248.53,509.05,240.19Z" transform="translate(-254.56 -26.5)"/><path class="cls-1" d="M531.5,465.5c5,12,96,185,131,215" transform="translate(-254.56 -26.5)"/><path class="cls-1" d="M703,234s-117,41-172,95" transform="translate(-254.56 -26.5)"/><path class="cls-4" d="M562.5,179.5c-7.46-2.7-15.86-3.83-30-4-16.78-.2-32.05,6.87-40,10q10-43.5,20-87Z" transform="translate(-254.56 -26.5)"/><path class="cls-5" d="M255.5,194.5s60,32,70,26" transform="translate(-254.56 -26.5)"/><path class="cls-5" d="M346.5,210.5s-76-52-76-64" transform="translate(-254.56 -26.5)"/><path class="cls-5" d="M355.5,202.5s-44-47-47-69" transform="translate(-254.56 -26.5)"/><path class="cls-5" d="M807.5,196.5s-60,32-70,26" transform="translate(-254.56 -26.5)"/><path class="cls-5" d="M716.5,212.5s76-52,76-64" transform="translate(-254.56 -26.5)"/><path class="cls-5" d="M703.5,203.5s44-47,47-69" transform="translate(-254.56 -26.5)"/><circle class="cls-4" cx="120.94" cy="104" r="16"/><circle class="cls-4" cx="190.94" cy="46" r="16"/><circle class="cls-4" cx="278.94" cy="18" r="16"/><circle class="cls-4" cx="354.94" cy="46" r="16"/><circle class="cls-4" cx="428.94" cy="104" r="16"/></svg>