<svg xmlns="http://www.w3.org/2000/svg" viewBox="0 0 278.3 571.69"><defs><style>.cls-1,.cls-2{fill:none;stroke:#000;stroke-miterlimit:10;}.cls-1{stroke-width:8px;}.cls-3{fill:#e71b1b;}.cls-4{fill:#f9e8bd;}</style></defs><title>sigma_bow_</title><g id="Layer_3" data-name="Layer 3"><path class="cls-1" d="M737,366c-1,45,6.22,141.54,5.5,145.5,0,0-33,66-42,83s-54,111-54,111" transform="translate(-560.22 -141.81)"/><path class="cls-1" d="M804.5,713.5c0-3-46.5-115.5-49-123-1.9-5.69-3.5-19.5-9.5-50.5l-3-28" transform="translate(-560.22 -141.81)"/><path class="cls-1" d="M683.5,401.5s105,29,113,23-53-56.06-53-56.06-147-55.94-151-70.94" transform="translate(-560.22 -141.81)"/><path class="cls-2" d="M582.5,540.5l101-139,7-256" transform="translate(-560.22 -141.81)"/><path class="cls-1" d="M580.5,543.5C526,427,620,175,690.5,145.5" transform="translate(-560.22 -141.81)"/><path class="cls-3" d="M726.4,252.22c14.72-3.14,28.77,2.16,34.31,4.88,14.46,7.1,12.09,7.07,26.78,15.45,13,7.42,10.48,5.51,23.71,10a106.9,106.9,0,0,0,16.75,4,13.08,13.08,0,0,0,10.57-3.36s-.85,5.25-4.76,7.8c-1.15.75-4.41,2.6-14.08,2.12a165.67,165.67,0,0,1-17.16-1.55,124.7,124.7,0,0,1,4.9,18.16,37.47,37.47,0,0,1-2.56,21.64,37.92,37.92,0,0,1-15.8,18.91c-9.79,5.9-19.9,6.16-26.22,6.31A63.29,63.29,0,0,1,743,354.24c-8.65-2.45-14.58-6.11-21.36-10.36C709.84,336.52,703.4,332.49,698,325A45.05,45.05,0,0,1,689.67,295c1-15.59,10.13-24.75,14.74-29.38C709.22,260.75,715.37,254.58,726.4,252.22Z" transform="translate(-560.22 -141.81)"/><path class="cls-4" d="M713.23,307.67c.88-13.59,3.33-20.07,6.25-26.44,2.39-5.22,5.72-12.49,14.62-16.75a32.65,32.65,0,0,1,24.14-1.77c10.91,3.37,17.68,8.63,19.61,11.05,10.29,12.91,7.95,29.61,6.92,37.23-.92,6.84-3.36,24.91-20,32.73a34.7,34.7,0,0,1-24.54,2.44c-10-2.7-20.31-10-24.37-19.45C714.29,323,712.58,317.65,713.23,307.67Z" transform="translate(-560.22 -141.81)"/></g></svg>