<svg xmlns="http://www.w3.org/2000/svg" viewBox="0 0 737.49 483.84"><defs><style>.cls-1,.cls-2,.cls-3{fill:none;stroke-miterlimit:10;}.cls-1{stroke:#000;stroke-width:7px;}.cls-2,.cls-3{stroke:#99a328;}.cls-2{stroke-width:12px;}.cls-3{stroke-width:14px;}.cls-4{fill:#e71b1b;}.cls-5{fill:#f9e8bd;}</style></defs><title>Sigma_tron</title><g id="Layer_3" data-name="Layer 3"><path class="cls-1" d="M906,397l-14-38,23-5,39-3v-7l-39,4-66-31-6,6,6,30s-245,3-249,6l47,125-84,30s21,43-3,86l128-33L857,400S886,410,906,397Z" transform="translate(-333.5 -189.66)"/><polygon class="cls-2" points="320.5 188.34 349.5 276.34 473.5 194.34 320.5 188.34"/><circle class="cls-1" cx="120" cy="363.84" r="116.5"/><circle class="cls-1" cx="603.93" cy="336.58" r="130.06"/><circle class="cls-3" cx="604.19" cy="337" r="89.53"/><circle class="cls-3" cx="120.17" cy="364.04" r="89.53"/></g><g id="Layer_2" data-name="Layer 2"><path class="cls-1" d="M954,345c-3,1-102,51-122,48-2.2-18.33,4.8-89.81,5.5-117.5.2-7.94-40.58,11.17-48,14C750,304.55,673.61,336.94,636,357c-15,8,95.5,42.5,100,63,3.54,16.12-82.62,107.37-86.5,106.5" transform="translate(-333.5 -189.66)"/><path class="cls-4" d="M844.59,191.82c10.88-4,22.17-1.49,26.65,0,11.82,3.84,10,4.09,22.12,8.86,10.73,4.24,8.55,3,19.17,5a81.1,81.1,0,0,0,13.2,1.21,10,10,0,0,0,7.69-3.72s0,4.07-2.77,6.47c-.8.7-3.08,2.46-10.51,3.15a124.7,124.7,0,0,1-13.25.7,95.23,95.23,0,0,1,5.71,13.31A31.23,31.23,0,0,1,903,259.71c-6.81,5.56-14.5,6.86-19.31,7.68a48.94,48.94,0,0,1-15.42.41c-6.85-.94-11.77-3.07-17.37-5.59-9.76-4.33-15.11-6.7-20.06-11.8a34.67,34.67,0,0,1-9.59-22c-1-12,5-20,8-24C832.41,200.21,836.43,194.82,844.59,191.82Z" transform="translate(-333.5 -189.66)"/><path class="cls-5" d="M840.6,235.54c-.82-10.45.35-15.66,1.88-20.84,1.25-4.24,3-10.15,9.31-14.38a25.25,25.25,0,0,1,18.22-4c8.69,1.38,14.42,4.65,16.15,6.29,9.27,8.72,9.3,21.71,9.35,27.63,0,5.32.16,19.36-11.65,27.14a26.81,26.81,0,0,1-18.46,4.54c-7.91-1-16.57-5.44-20.7-12.17C843.09,247.13,841.17,243.25,840.6,235.54Z" transform="translate(-333.5 -189.66)"/></g></svg>