<?xml version="1.0" encoding="utf-8"?>
<!-- Generator: Adobe Illustrator 23.0.1, SVG Export Plug-In . SVG Version: 6.00 Build 0)  -->
<svg version="1.1" id="Layer_1" xmlns="http://www.w3.org/2000/svg" xmlns:xlink="http://www.w3.org/1999/xlink" x="0px" y="0px"
	 viewBox="0 0 792.9 456.1" style="enable-background:new 0 0 792.9 456.1;" xml:space="preserve">
<style type="text/css">
	.st0{fill:#82D4D8;stroke:#FCC252;stroke-width:3;stroke-miterlimit:10;}
	.st1{fill:#99A328;stroke:#FCC252;stroke-width:3;stroke-miterlimit:10;}
	.st2{fill:#F9E8BD;stroke:#FCC252;stroke-width:3;stroke-miterlimit:10;}
	.st3{fill:none;stroke:#FCC252;stroke-width:3;stroke-miterlimit:10;}
	.st4{fill:none;stroke:#000000;stroke-width:8;stroke-miterlimit:10;}
	.st5{fill:#E71B1B;}
	.st6{fill:#F9E8BD;}
</style>
<title>tron_bike</title>
<g id="Layer_5">
	<path class="st0" d="M458,388.8c6.9,0.8,39.3,10.4,58,19c13,6,72,37,91,42c52.6,13.8,99.2-8,112-14c21.6-10.2,49.6-23.3,64-54
		c11.9-25.2,8.4-49.2,6-66c-1.7-11.9-8.4-58.5-46-92c-53.5-47.7-139.1-27.1-148-25c-12.2,2.9-22.9,7.1-41,7c-20.8-0.2-41.5-2.2-62-6
		c0,0-2.1,20-14,38c0,0-7.6,11.4-23,20c-35.2,19.6-107.3-1.2-160-48c-36.1-32.1-60-60-55-57s-79.2,0.5-141,25
		c-35.9,14.2-54.1,21.7-68,37C-10.9,261,3.7,328.4,5,333.8c0.7,2.9,18,76,63,101c53.9,29.9,109.1,21.4,152,4
		C257,423.8,421,380.8,458,388.8"/>
	<circle class="st1" cx="170.5" cy="327.3" r="107.5"/>
	<circle class="st1" cx="640.5" cy="327.3" r="107.5"/>
	<circle class="st2" cx="170.5" cy="327.3" r="88.5"/>
	<circle class="st2" cx="640.5" cy="327.3" r="88.5"/>
	<path class="st3" d="M208.2,226.6c0,0,15.8-31.8,14.8-31.8s36,16,36,16l-15,38.1"/>
</g>
<path class="st4" d="M242.1,203.5c36.4,2.8,124.9-87.7,124.9-87.7s103,121,102,132c0,0-80,107-78,113s133.5,9.5,142.5,17.5"/>
<path class="st5" d="M307.5,37.3c8.5-9.8,20.8-13.5,26-14.6c13.6-2.7,12-1.5,26.4-3.4c12.8-1.7,10-1.7,21.5-5.5
	c4.7-1.6,9.2-3.6,13.5-6c2.9-1.7,4.9-4.5,5.5-7.8c0,0,2.2,4,0.8,7.8c-0.4,1.1-1.7,4.1-8.5,8.8c-4,2.8-8.2,5.5-12.6,7.9
	c4.5,3,8.8,6.3,12.8,9.9c4.7,4.3,8,9.9,9.5,16.1c2,7,1.7,14.4-1,21.2c-3.6,9.1-10.4,14.6-14.7,18c-4.4,3.7-9.5,6.7-14.8,8.8
	c-7.2,2.8-13.2,3.4-20,4c-11.9,1.1-18.4,1.7-26-0.6c-8.8-2.7-16.4-8.5-21.3-16.3c-7.5-11.2-6-22.2-5.2-27.8
	C300.2,52.1,301.2,44.6,307.5,37.3z"/>
<path class="st6" d="M327.4,82.1c-6.5-9.8-8.2-15.5-9.5-21.4c-1.1-4.8-2.6-11.5,1.3-19.1c3.3-6.4,8.8-11.4,15.6-13.8
	c9.2-3.4,16.6-3.3,19.2-2.6c13.8,3.5,20.9,16.1,24.2,21.9c2.9,5.2,10.7,18.8,3.4,32.8c-3.2,6.6-8.8,11.7-15.5,14.5
	c-8.3,3.4-19.1,3.7-26.8-0.6C336.2,92.1,332.2,89.3,327.4,82.1z"/>
</svg>
